<?xml version="1.0" encoding="UTF-8" standalone="no"?>
<!-- Created with Inkscape (http://www.inkscape.org/) -->

<svg
   width="102.29938mm"
   height="88.624649mm"
   viewBox="0 0 102.29938 88.624649"
   version="1.1"
   id="svg1"
   xml:space="preserve"
   inkscape:export-filename="logoink.png"
   inkscape:export-xdpi="96"
   inkscape:export-ydpi="96"
   inkscape:version="1.3.2 (091e20e, 2023-11-25, custom)"
   sodipodi:docname="dibujoinklogo.svg"
   xmlns:inkscape="http://www.inkscape.org/namespaces/inkscape"
   xmlns:sodipodi="http://sodipodi.sourceforge.net/DTD/sodipodi-0.dtd"
   xmlns="http://www.w3.org/2000/svg"
   xmlns:svg="http://www.w3.org/2000/svg"><sodipodi:namedview
     id="namedview1"
     pagecolor="#ffffff"
     bordercolor="#000000"
     borderopacity="0.25"
     inkscape:showpageshadow="2"
     inkscape:pageopacity="0.0"
     inkscape:pagecheckerboard="0"
     inkscape:deskcolor="#d1d1d1"
     inkscape:document-units="mm"
     inkscape:zoom="0.53362093"
     inkscape:cx="555.63787"
     inkscape:cy="495.67021"
     inkscape:window-width="1440"
     inkscape:window-height="837"
     inkscape:window-x="-8"
     inkscape:window-y="-8"
     inkscape:window-maximized="1"
     inkscape:current-layer="layer1" /><defs
     id="defs1" /><g
     inkscape:label="Capa 1"
     inkscape:groupmode="layer"
     id="layer1"
     transform="translate(-53.72997,-26.841054)"><path
       style="fill:#e3d000;fill-opacity:1;stroke:#000000;stroke-width:0.617;stroke-linecap:round;stroke-linejoin:round"
       id="path1"
       sodipodi:type="arc"
       sodipodi:cx="99.66111"
       sodipodi:cy="71.151085"
       sodipodi:rx="45.616024"
       sodipodi:ry="43.99836"
       sodipodi:start="5.2591774"
       sodipodi:end="4.8330018"
       sodipodi:open="true"
       sodipodi:arc-type="arc"
       d="M 123.37901,33.56774 A 45.616024,43.99836 0 0 1 140.92753,89.901456 45.616024,43.99836 0 0 1 84.719958,112.72235 45.616024,43.99836 0 0 1 55.216931,61.242294 45.616024,43.99836 0 0 1 105.14966,27.472369" /><path
       style="fill:#f3df00;fill-opacity:1;stroke:#000000;stroke-width:0.617;stroke-linecap:round;stroke-linejoin:round"
       id="path1-5"
       sodipodi:type="arc"
       sodipodi:cx="110.10203"
       sodipodi:cy="70.576248"
       sodipodi:rx="45.616024"
       sodipodi:ry="43.384808"
       sodipodi:start="5.2591774"
       sodipodi:end="5.2500037"
       sodipodi:open="true"
       sodipodi:arc-type="arc"
       d="M 133.81992,33.516999 A 45.616024,43.384808 0 0 1 149.12147,93.048979 45.616024,43.384808 0 0 1 86.563108,107.73858 45.616024,43.384808 0 0 1 70.974614,48.273975 45.616024,43.384808 0 0 1 133.46148,33.311623" /><path
       style="fill:#f3fffa;fill-opacity:1;stroke:#000000;stroke-width:0.949375;stroke-linecap:round;stroke-linejoin:round"
       d="m 98.170342,94.160348 c -0.96442,-0.205529 -1.914873,-0.511693 -2.112141,-0.680364 -0.197268,-0.168663 4.416239,-3.059831 5.956699,-6.632592 0.93438,-2.167075 0.0143,-4.334149 -0.34607,-6.501223 l 2.48746,0.19286 c 9.98626,0.774266 18.57809,-6.580998 16.70401,-14.299893 -0.60701,-2.500135 -2.4775,-5.026907 -4.64221,-6.270951 -1.71272,-0.984299 -4.91894,-1.415962 -7.47352,-1.006183 -2.18052,0.349771 -4.53999,2.208564 -4.90286,3.862471 -0.38399,1.750124 0.71938,3.776399 2.23327,4.101285 0.61232,0.131409 1.11394,0.347608 1.11473,0.480453 1.08438,0.677674 -3.42718,12.544499 -5.57177,12.064784 -0.11304,-0.02529 -1.6044,-0.463728 -3.388638,-1.217725 -10.307659,-4.355899 -13.584521,-15.908033 -6.963801,-24.549963 2.12413,-2.772599 3.92943,-4.248089 7.337511,-5.996978 7.285358,-3.73858 16.045178,-4.016944 23.765458,-0.755211 8.57084,3.621073 14.49096,11.588011 15.06033,20.26725 0.29718,4.530323 -0.60189,8.120091 -3.12467,12.475902 -3.78516,6.53543 -10.16886,11.106087 -19.20046,13.74732 -2.28187,0.667315 -4.0849,1.298213 -9.01606,1.401543 -3.39009,0.07101 -6.952858,-0.477273 -7.917268,-0.682785 z"
       id="path3"
       sodipodi:nodetypes="ssscsssssscssscssssss" /></g></svg>
