<!-- icon666.com - MILLIONS vector ICONS FREE --><svg viewBox="0 0 480 480" xmlns="http://www.w3.org/2000/svg"><path d="m240 0c-132.800781 0-240 107.199219-240 240s107.199219 240 240 240 240-107.199219 240-240-107.199219-240-240-240zm0 464c-124 0-224-100-224-224s100-224 224-224 224 100 224 224-100 224-224 224zm0 0"></path><path d="m264 176v16c40 0 72 32 72 72v128c0 4.800781-3.199219 8-8 8h-176c-4.800781 0-8-3.199219-8-8v-128c0-40 32-72 72-72v-16c-48.800781 0-88 39.199219-88 88v128c0 13.601562 10.398438 24 24 24h176c13.601562 0 24-10.398438 24-24v-128c0-48.800781-39.199219-88-88-88zm0 0"></path><path d="m240 160c35.199219 0 64-28.800781 64-64s-28.800781-64-64-64-64 28.800781-64 64 28.800781 64 64 64zm0-112c26.398438 0 48 21.601562 48 48s-21.601562 48-48 48-48-21.601562-48-48 21.601562-48 48-48zm0 0"></path></svg>