<!-- icon666.com - MILLIONS vector ICONS FREE --><svg enable-background="new 0 0 520 520" viewBox="0 0 520 520" xmlns="http://www.w3.org/2000/svg"><g id="_x31_515_x2C__Alarm_x2C__Bell_x2C__Christmas_x2C__Ribbon_x2C__Ring_x2C_"><g><path d="m242.608 132.174c-13.668 0-27.257 6.922-38.266 19.49-9.383 10.712-15.212 23.736-15.212 33.988 0 5.523 4.477 10 10 10s10-4.477 10-10c0-4.522 3.523-13.123 10.257-20.811 7.051-8.051 15.515-12.668 23.221-12.668 5.523 0 10-4.477 10-10s-4.477-9.999-10-9.999z"></path><path d="m490 20h-460c-5.523 0-10 4.477-10 10s4.477 10 10 10h201.72c-1.11 3.13-1.72 6.494-1.72 10v33.706c-53.394 13.428-93.043 61.837-93.043 119.338v45.002c0 47.271-15.983 93.855-45.005 131.169-.425.549-.383.543-4.536 6.779-1.6 2.35-2.633 5.112-2.633 8.354 0 12.248 14.667 17.724 19.486 19.522 8.947 3.34 21.512 6.302 37.345 8.802 29.326 4.63 67.499 7.334 108.386 7.715v16.729c-10.17 4.004-17.391 13.917-17.391 25.492 0 15.104 12.287 27.392 27.391 27.392s27.392-12.288 27.392-27.392c0-11.575-7.221-21.488-17.392-25.492v-16.729c40.887-.381 79.06-3.085 108.386-7.715 15.834-2.5 28.398-5.462 37.346-8.802 4.819-1.799 19.486-7.274 19.486-19.522 0-.214-.015-.42-.023-.63.105-1.951-.357-3.946-1.446-5.73-.56-1.146-1.252-2.209-2.046-3.189-3.247-5.002-3.186-4.979-3.653-5.583-29.021-37.313-45.005-83.896-45.005-131.169v-45.002c0-57.501-39.65-105.91-93.044-119.338v-33.707c0-3.506-.61-6.87-1.72-10h201.719c5.522 0 10-4.477 10-10s-4.478-10-10-10zm-337.199 384.106c-24.807-3.417-37.346-7.207-43.475-9.759 6.129-2.552 18.668-6.342 43.475-9.759 27.116-3.735 61.312-5.929 97.199-6.274v32.066c-35.887-.345-70.083-2.538-97.199-6.274zm107.199 75.894c-4.076 0-7.391-3.315-7.391-7.392 0-4.075 3.315-7.391 7.391-7.391s7.392 3.315 7.392 7.391c0 4.077-3.316 7.392-7.392 7.392zm107.199-75.894c-27.116 3.735-61.313 5.929-97.199 6.274v-32.066c35.887.346 70.083 2.539 97.199 6.274 24.808 3.417 37.346 7.207 43.476 9.759-6.13 2.552-18.668 6.342-43.476 9.759zm-4.155-201.063v45.002c0 42.788 11.985 85.057 34.108 121.493-66.256-14.797-205.966-15.25-274.305 0 7.626-12.56 14.046-25.811 19.186-39.539h167.967c5.522 0 10-4.478 10-10s-4.478-10-10-10h-161.469c5.544-20.109 8.426-40.97 8.426-61.954v-45.002c0-56.818 46.225-103.043 103.043-103.043s103.044 46.225 103.044 103.043zm-93.044-153.043v30.408c-6.531-.528-13.068-.56-20 0v-30.408c0-5.514 4.486-10 10-10s10 4.486 10 10z"></path><path d="m70 160h20v20h-20z"></path><path d="m70 200h20v20h-20z"></path><path d="m70 240h20v20h-20z"></path><path d="m70 280h20v20h-20z"></path><path d="m440 80h20v20h-20z"></path><path d="m440 120h20v20h-20z"></path><path d="m440 160h20v20h-20z"></path><path d="m440 200h20v20h-20z"></path><path d="m450 270c-16.542 0-30 13.458-30 30s13.458 30 30 30 30-13.458 30-30-13.458-30-30-30zm0 40c-5.514 0-10-4.486-10-10s4.486-10 10-10 10 4.486 10 10-4.486 10-10 10z"></path><path d="m80 430c-16.542 0-30 13.458-30 30s13.458 30 30 30 30-13.458 30-30-13.458-30-30-30zm0 40c-5.514 0-10-4.486-10-10s4.486-10 10-10 10 4.486 10 10-4.486 10-10 10z"></path></g></g><g id="Layer_1"></g></svg>